<svg width="50" height="50" viewBox="0 0 50 50" fill="none" xmlns="http://www.w3.org/2000/svg">
<mask id="mask0_71_70" style="mask-type:alpha" maskUnits="userSpaceOnUse" x="0" y="0" width="50" height="50">
<rect width="50" height="50" fill="#D9D9D9"/>
</mask>
<g mask="url(#mask0_71_70)">
<path d="M22.6564 40.2085L8.90641 26.4585C8.69808 26.2502 8.55016 26.0245 8.46266 25.7815C8.37655 25.5384 8.3335 25.278 8.3335 25.0002C8.3335 24.7224 8.37655 24.462 8.46266 24.219C8.55016 23.9759 8.69808 23.7502 8.90641 23.5419L22.6564 9.79188C23.0384 9.40993 23.5154 9.20994 24.0877 9.19188C24.6613 9.17521 25.1564 9.37521 25.5731 9.79188C25.9897 10.1738 26.2071 10.6509 26.2252 11.2231C26.2418 11.7967 26.0418 12.2919 25.6252 12.7085L15.4168 22.9169H38.6981C39.2884 22.9169 39.7835 23.1162 40.1835 23.5148C40.5821 23.9148 40.7814 24.4099 40.7814 25.0002C40.7814 25.5905 40.5821 26.0849 40.1835 26.4835C39.7835 26.8835 39.2884 27.0835 38.6981 27.0835H15.4168L25.6252 37.2919C26.0071 37.6738 26.2071 38.1599 26.2252 38.7502C26.2418 39.3405 26.0418 39.8266 25.6252 40.2085C25.2432 40.6252 24.7571 40.8335 24.1668 40.8335C23.5766 40.8335 23.0731 40.6252 22.6564 40.2085Z" fill="#666666"/>
</g>
</svg>
